<?xml version="1.0" encoding="utf-8"?>
<!-- Generator: Adobe Illustrator 15.0.0, SVG Export Plug-In  -->
<!DOCTYPE svg PUBLIC "-//W3C//DTD SVG 1.1//EN" "http://www.w3.org/Graphics/SVG/1.1/DTD/svg11.dtd" [
	<!ENTITY ns_flows "http://ns.adobe.com/Flows/1.0/">
]>
<svg version="1.1"
	 xmlns="http://www.w3.org/2000/svg" xmlns:xlink="http://www.w3.org/1999/xlink" xmlns:a="http://ns.adobe.com/AdobeSVGViewerExtensions/3.0/"
	 x="0px" y="0px" width="200px" height="200px" viewBox="0 0 200 200" enable-background="new 0 0 200 200" xml:space="preserve">
<defs>
</defs>
<path fill="#F5F5F6" d="M100,0C44.771,0,0,44.771,0,100c0,55.229,44.771,100,100,100c55.229,0,100-44.771,100-100
	C200,44.771,155.229,0,100,0z M100,181.25c-44.873,0-81.25-36.377-81.25-81.25c0-44.873,36.377-81.25,81.25-81.25
	c44.873,0,81.25,36.377,81.25,81.25C181.25,144.873,144.873,181.25,100,181.25z"/>
<path fill="#F5F5F6" d="M112.19,145.518h12.216c5.429,0,11.197,1.187,11.197,8.144c0,7.126-6.447,8.144-11.197,8.144H83.007
	c-4.75,0-11.197-1.018-11.197-8.144c0-6.957,5.768-8.144,11.197-8.144h12.895V86.645H83.007c-4.75,0-11.197-1.018-11.197-8.144
	c0-6.956,5.768-8.144,11.197-8.144h17.136c9.332,0,12.046,1.697,12.046,11.368V145.518z M87.588,37.442
	c0-5.769,3.224-7.635,7.635-7.635h9.331c4.412,0,7.636,1.866,7.636,7.635v7.805c0,5.769-3.224,7.635-7.636,7.635h-9.331
	c-4.411,0-7.635-1.866-7.635-7.635V37.442z"/>
</svg>
